<?xml version="1.0" standalone="no"?>
<!DOCTYPE svg PUBLIC "-//W3C//DTD SVG 20010904//EN"
 "http://www.w3.org/TR/2001/REC-SVG-20010904/DTD/svg10.dtd">
<svg version="1.0" xmlns="http://www.w3.org/2000/svg"
 width="260.000000pt" height="260.000000pt" viewBox="0 0 260.000000 260.000000"
 preserveAspectRatio="xMidYMid meet">
<metadata>
Created by potrace 1.14, written by Peter Selinger 2001-2017
</metadata>
<g transform="translate(0.000000,260.000000) scale(0.100000,-0.100000)"
fill="#000000" stroke="none">
<path d="M0 1300 l0 -1300 1300 0 1300 0 0 1300 0 1300 -1300 0 -1300 0 0
-1300z m1826 1118 c5 -7 -30 -47 -92 -105 l-99 -92 -366 -1 -366 0 -88 83
c-48 45 -94 86 -102 90 -11 7 -12 12 -2 23 10 12 98 14 560 14 409 0 550 -3
555 -12z m-1166 -80 c11 -24 20 -53 20 -66 0 -12 10 -55 22 -96 l21 -73 -21
-29 c-19 -28 -251 -423 -265 -454 -4 -8 -18 -33 -32 -55 -13 -22 -29 -50 -36
-61 -16 -30 -70 -52 -231 -94 -62 -16 -70 -12 -47 30 10 19 25 49 34 65 36 69
78 141 91 156 8 8 14 19 14 23 0 5 184 328 220 386 5 8 17 29 25 45 8 17 30
55 48 85 17 30 48 83 67 118 19 34 39 62 43 62 4 0 17 -19 27 -42z m1267 25
c4 -10 60 -109 125 -220 65 -112 118 -206 118 -209 0 -4 6 -15 14 -23 7 -9 24
-36 37 -61 13 -25 29 -52 35 -60 6 -8 25 -39 40 -68 16 -30 38 -69 49 -88 11
-18 33 -57 49 -86 15 -29 34 -60 42 -69 7 -8 15 -26 16 -40 3 -22 0 -24 -32
-21 -73 6 -250 72 -250 94 0 6 -6 19 -14 27 -7 9 -30 48 -51 86 -21 39 -46 82
-56 97 -11 14 -19 28 -19 31 0 3 -45 83 -101 178 -112 193 -108 177 -74 323
25 107 56 153 72 109z m-474 -375 c72 -21 119 -46 210 -108 49 -33 167 -170
167 -194 0 -6 5 -17 12 -24 33 -33 77 -219 78 -327 0 -115 -31 -252 -70 -315
-6 -8 -15 -26 -21 -40 -32 -75 -180 -220 -269 -262 -120 -57 -125 -58 -290
-58 -165 0 -170 1 -290 58 -49 23 -116 76 -173 136 -52 54 -127 163 -127 184
0 7 -6 23 -14 35 -21 34 -46 175 -46 264 0 121 27 233 80 335 26 50 146 198
160 198 5 0 15 6 22 13 26 26 134 83 198 103 94 32 274 32 373 2z m-1268 -689
c176 -55 173 -53 220 -144 8 -16 24 -43 35 -60 11 -16 23 -37 26 -45 4 -8 63
-111 131 -228 l124 -213 -15 -47 c-9 -26 -21 -74 -27 -107 -11 -61 -33 -115
-47 -115 -5 0 -16 15 -25 33 -9 17 -32 59 -52 92 -19 33 -41 74 -50 90 -8 17
-24 44 -35 60 -11 17 -23 37 -26 45 -4 8 -38 68 -76 132 -37 64 -68 119 -68
122 0 3 -13 24 -29 48 -16 24 -43 70 -60 103 -18 33 -40 74 -51 90 -43 71 -80
147 -75 156 9 13 22 12 100 -12z m2265 6 c0 -8 -62 -122 -138 -253 -76 -130
-150 -257 -164 -282 -14 -25 -35 -61 -46 -80 -12 -19 -26 -44 -32 -55 -5 -11
-21 -38 -34 -60 -14 -22 -37 -62 -51 -90 -15 -27 -33 -57 -40 -65 -6 -8 -15
-23 -18 -33 -8 -21 -35 -33 -48 -20 -5 5 -13 31 -19 58 -5 28 -18 80 -29 118
-17 62 -17 69 -2 97 61 112 75 137 87 151 8 8 14 18 14 22 0 3 56 102 125 219
l124 214 58 18 c32 10 83 27 113 37 68 23 100 24 100 4z m-721 -901 c53 -50
91 -94 91 -105 0 -18 -16 -19 -544 -19 -299 0 -551 3 -560 6 -14 5 -13 9 4 34
11 16 56 60 100 99 l81 71 368 0 368 0 92 -86z"/>
<path d="M1195 1801 c-188 -38 -323 -182 -356 -383 -38 -232 90 -457 299 -527
110 -37 256 -22 351 36 51 32 149 140 170 189 26 57 51 169 51 224 0 151 -83
310 -207 397 -75 53 -215 82 -308 64z"/>
</g>
</svg>
